<svg width="48" height="48" viewBox="0 0 48 48" fill="none" xmlns="http://www.w3.org/2000/svg">
<rect width="48" height="48" rx="10" fill="url(#paint0_linear_799_14633)"/>
<path fill-rule="evenodd" clip-rule="evenodd" d="M31.52 11.1149L27.47 15.1649V9.5249H20.18V15.1649L16.26 11.2449L11.1 16.3949L14.91 20.2049H9.48999V23.5349H20.44C21.14 23.5349 21.84 23.3649 22.39 22.9249C23.78 21.8249 24.02 19.7049 24.02 15.6349C24.02 19.7049 24.26 21.8249 25.65 22.9249C26.2 23.3549 26.91 23.5349 27.6 23.5349H38.5V20.2949L38.41 20.2049H32.73L36.67 16.2649L31.51 11.1049L31.52 11.1149ZM38.51 24.4549H27.84C27.37 24.4549 26.89 24.5449 26.46 24.7349C24.35 25.6849 24.03 27.7249 24.03 32.4749C24.03 29.4549 23.59 27.3949 22.87 26.1049C22.28 25.0549 21.13 24.4549 19.92 24.4549H9.48999V27.5049H15.13L11.12 31.5149L16.28 36.6749L20.18 32.7749V38.4749H27.47V32.7749L31.61 36.9149H31.63L36.77 31.7649L32.52 27.5149H38.51V24.4649V24.4549Z" fill="black"/>
<defs>
<linearGradient id="paint0_linear_799_14633" x1="24" y1="0" x2="24" y2="48" gradientUnits="userSpaceOnUse">
<stop stop-color="#B5F602"/>
<stop offset="1" stop-color="#E7FFA6"/>
</linearGradient>
</defs>
</svg>
