<svg width="512" height="512" viewBox="0 0 512 512" fill="none" xmlns="http://www.w3.org/2000/svg">
<rect width="512" height="512" rx="100" fill="url(#paint0_linear_2646_4514)"/>
<path fill-rule="evenodd" clip-rule="evenodd" d="M334.648 121.182L292.273 163.557V104.578H215.973V163.564L174.94 122.531L120.989 176.483L160.89 216.384H104.18L104.18 251.514H226.134C252.363 243.096 256.248 221.621 256.248 168.631C256.248 221.621 260.132 243.096 286.361 251.514H407.818V217.444C407.728 217.09 407.638 216.736 407.546 216.384H347.35L388.6 175.134L334.648 121.182ZM407.818 260.486H291.054C260.587 267.876 256.248 288.678 256.248 344.682C256.248 288.678 251.909 267.876 221.441 260.486H104.18L104.18 292.683H163.147L121.182 334.648L175.134 388.6L215.973 347.76V407.422H292.273V347.767L335.61 391.104L335.826 390.975L389.605 337.196L345.092 292.683H407.818V260.486Z" fill="black"/>
<defs>
<linearGradient id="paint0_linear_2646_4514" x1="25.0906" y1="22.8034" x2="488.269" y2="500.233" gradientUnits="userSpaceOnUse">
<stop stop-color="#ABE900"/>
<stop offset="1" stop-color="#E6FFA3"/>
</linearGradient>
</defs>
</svg>
