<svg width="100" height="100" viewBox="0 0 100 100" fill="none" xmlns="http://www.w3.org/2000/svg">
<rect width="100" height="100" rx="10" fill="url(#paint0_linear_8508_45103)"/>
<g filter="url(#filter0_i_8508_45103)">
<path d="M75.2853 69.2072H63.754V44.009H75.2853V69.2072ZM53.9865 68.8235H42.1632V68.8244C31.9165 68.8244 23.571 60.6971 23.1954 50.5412H34.9982C35.3556 54.1866 38.426 57.0321 42.1622 57.0324V50.4875H53.9865V68.8235ZM42.1691 42.6389C38.4325 42.6389 35.3623 45.4853 35.005 49.1311H23.2013C23.5707 38.969 31.9223 30.8479 42.1691 30.8479V42.6389ZM61.1642 30.8557H75.2853V42.6428H61.1056V42.6399C57.3954 42.6693 54.3546 45.5043 53.9991 49.1311H42.1964C42.5658 38.969 50.9174 30.8479 61.1642 30.8479V30.8557Z" fill="black"/>
</g>
<defs>
<filter id="filter0_i_8508_45103" x="23.1954" y="30.8479" width="52.0898" height="38.6122" filterUnits="userSpaceOnUse" color-interpolation-filters="sRGB">
<feFlood flood-opacity="0" result="BackgroundImageFix"/>
<feBlend mode="normal" in="SourceGraphic" in2="BackgroundImageFix" result="shape"/>
<feColorMatrix in="SourceAlpha" type="matrix" values="0 0 0 0 0 0 0 0 0 0 0 0 0 0 0 0 0 0 127 0" result="hardAlpha"/>
<feOffset dy="0.252811"/>
<feGaussianBlur stdDeviation="0.126405"/>
<feComposite in2="hardAlpha" operator="arithmetic" k2="-1" k3="1"/>
<feColorMatrix type="matrix" values="0 0 0 0 0 0 0 0 0 0 0 0 0 0 0 0 0 0 0.25 0"/>
<feBlend mode="normal" in2="shape" result="effect1_innerShadow_8508_45103"/>
</filter>
<linearGradient id="paint0_linear_8508_45103" x1="18.4868" y1="4.42419" x2="72.9044" y2="114.365" gradientUnits="userSpaceOnUse">
<stop stop-color="#B5F602"/>
<stop offset="1" stop-color="white"/>
</linearGradient>
</defs>
</svg>
