<svg width="18" height="18" viewBox="0 0 18 18" fill="none" xmlns="http://www.w3.org/2000/svg">
<g clip-path="url(#clip0_7074_3429)">
<circle cx="9" cy="9" r="9" fill="#C5C6CB"/>
<path d="M9.00059 10.0494L6.82559 12.2244C6.68809 12.3619 6.51309 12.4307 6.30059 12.4307C6.08809 12.4307 5.91309 12.3619 5.77559 12.2244C5.63809 12.0869 5.56934 11.9119 5.56934 11.6994C5.56934 11.4869 5.63809 11.3119 5.77559 11.1744L7.95059 8.99941L5.77559 6.84316C5.63809 6.70566 5.56934 6.53066 5.56934 6.31816C5.56934 6.10566 5.63809 5.93066 5.77559 5.79316C5.91309 5.65566 6.08809 5.58691 6.30059 5.58691C6.51309 5.58691 6.68809 5.65566 6.82559 5.79316L9.00059 7.96816L11.1568 5.79316C11.2943 5.65566 11.4693 5.58691 11.6818 5.58691C11.8943 5.58691 12.0693 5.65566 12.2068 5.79316C12.3568 5.94316 12.4318 6.12129 12.4318 6.32754C12.4318 6.53379 12.3568 6.70566 12.2068 6.84316L10.0318 8.99941L12.2068 11.1744C12.3443 11.3119 12.4131 11.4869 12.4131 11.6994C12.4131 11.9119 12.3443 12.0869 12.2068 12.2244C12.0568 12.3744 11.8787 12.4494 11.6725 12.4494C11.4662 12.4494 11.2943 12.3744 11.1568 12.2244L9.00059 10.0494Z" fill="white"/>
</g>
<defs>
<clipPath id="clip0_7074_3429">
<rect width="18" height="18" fill="white"/>
</clipPath>
</defs>
</svg>
