<svg width="24" height="24" viewBox="0 0 24 24" fill="none" xmlns="http://www.w3.org/2000/svg">
<path fill-rule="evenodd" clip-rule="evenodd" d="M16 10C16 12.7614 13.7614 15 11 15C8.23858 15 6 12.7614 6 10C6 7.23858 8.23858 5 11 5C13.7614 5 16 7.23858 16 10ZM13.9036 16.3713C13.0191 16.775 12.0358 17 11 17C7.13401 17 4 13.866 4 10C4 6.13401 7.13401 3 11 3C14.866 3 18 6.13401 18 10C18 12.1115 17.0651 14.0047 15.5866 15.2881L18.9893 20.1476C19.3061 20.6 19.1961 21.2236 18.7437 21.5404C18.2913 21.8571 17.6678 21.7472 17.351 21.2948L13.9095 16.3799C13.9075 16.377 13.9055 16.3742 13.9036 16.3713Z" fill="#212224"/>
</svg>
