<svg width="28" height="28" viewBox="0 0 28 28" fill="none" xmlns="http://www.w3.org/2000/svg">
<g clip-path="url(#clip0_7800_13319)">
<path d="M13.9999 2.33337C7.55992 2.33337 2.33325 7.56004 2.33325 14C2.33325 20.44 7.55992 25.6667 13.9999 25.6667C20.4399 25.6667 25.6666 20.44 25.6666 14C25.6666 7.56004 20.4399 2.33337 13.9999 2.33337ZM13.9999 7.00004C16.2516 7.00004 18.0833 8.83171 18.0833 11.0834C18.0833 13.335 16.2516 15.1667 13.9999 15.1667C11.7483 15.1667 9.91658 13.335 9.91658 11.0834C9.91658 8.83171 11.7483 7.00004 13.9999 7.00004ZM13.9999 23.3334C11.6316 23.3334 8.83159 22.3767 6.83659 19.9734C8.80825 18.4334 11.2933 17.5 13.9999 17.5C16.7066 17.5 19.1916 18.4334 21.1632 19.9734C19.1683 22.3767 16.3683 23.3334 13.9999 23.3334Z" fill="#212224"/>
</g>
<defs>
<clipPath id="clip0_7800_13319">
<rect width="28" height="28" fill="white"/>
</clipPath>
</defs>
</svg>
