<svg width="335" height="45" viewBox="0 0 335 45" fill="none" xmlns="http://www.w3.org/2000/svg">
<rect y="0.300049" width="335" height="44" rx="10" fill="#B5F602"/>
<path d="M117.953 15.3176V28.6477H116.166V15.3176H117.953ZM115.229 15.5081V28.0325H113.471V23.9016H111.903C111.405 25.198 110.534 25.9377 109.413 25.9377C107.655 25.9377 106.513 24.092 106.513 21.0891C106.513 18.1008 107.655 16.2698 109.413 16.2698C110.526 16.2698 111.398 16.9949 111.903 18.2766H113.471V15.5081H115.229ZM109.413 18.0276C108.637 18.0276 108.197 19.053 108.212 21.0891C108.197 23.1399 108.637 24.1506 109.413 24.136C110.189 24.1506 110.658 23.1399 110.658 21.0891C110.658 19.053 110.175 18.0276 109.413 18.0276ZM112.27 19.7708C112.328 20.1809 112.357 20.6204 112.357 21.0891C112.357 21.5505 112.328 21.99 112.27 22.3928H113.471V19.7708H112.27ZM130.917 15.3176V28.6477H129.13V21.9241H127.929V28.0325H126.156V15.5081H127.929V20.4006H129.13V15.3176H130.917ZM125.043 16.6946V25.2932H119.74V16.6946H125.043ZM121.483 18.1741V23.8284H123.3V18.1741H121.483ZM143.588 15.3176V28.677H141.713V21.9387H139.311V20.4446H141.713V15.3176H143.588ZM137.318 19.4924C137.318 21.426 138.373 23.5793 140.556 24.5168L139.56 25.9524C138.043 25.3225 136.989 24.0481 136.41 22.5247C135.824 24.1433 134.777 25.5056 133.246 26.1575L132.265 24.7219C134.403 23.7698 135.443 21.4993 135.458 19.4924V18.9797H132.689V17.4856H135.458V15.6106H137.333V17.4856H140.028V18.9797H137.318V19.4924ZM159.262 15.3176V20.2981H161.225V21.8655H159.262V28.6477H157.387V15.3176H159.262ZM151.029 16.3723V19.6243H153.798V16.3723H155.658V25.5569H149.169V16.3723H151.029ZM151.029 24.0481H153.798V21.0745H151.029V24.0481ZM173.91 25.6301V27.1682H161.708V25.6301H166.85V23.6233H163.114V19.1409H170.658V17.676H163.1V16.1819H172.504V20.6057H164.989V22.0999H172.812V23.6233H168.71V25.6301H173.91ZM185.189 15.3176V20.4299H187.079V21.968H185.189V28.6184H183.314V15.3176H185.189ZM181.63 16.6799C181.615 20.6643 180.062 24.1213 175.58 26.3186L174.525 24.8831C177.682 23.301 179.374 21.177 179.726 18.2034H175.287V16.6799H181.63ZM198.842 15.3176V28.6477H196.952V15.3176H198.842ZM194.843 16.7092C194.843 20.7522 193.422 24.1067 188.661 26.3625L187.68 24.8684C191.122 23.2424 192.638 21.1331 192.938 18.1741H188.397V16.7092H194.843Z" fill="#323339"/>
<path d="M224 17.3H221C220.45 17.3 220 17.75 220 18.3C220 18.85 220.45 19.3 221 19.3H224C225.65 19.3 227 20.65 227 22.3C227 23.95 225.65 25.3 224 25.3H221C220.45 25.3 220 25.75 220 26.3C220 26.85 220.45 27.3 221 27.3H224C226.76 27.3 229 25.06 229 22.3C229 19.54 226.76 17.3 224 17.3ZM215 22.3C215 22.85 215.45 23.3 216 23.3H222C222.55 23.3 223 22.85 223 22.3C223 21.75 222.55 21.3 222 21.3H216C215.45 21.3 215 21.75 215 22.3ZM217 25.3H214C212.35 25.3 211 23.95 211 22.3C211 20.65 212.35 19.3 214 19.3H217C217.55 19.3 218 18.85 218 18.3C218 17.75 217.55 17.3 217 17.3H214C211.24 17.3 209 19.54 209 22.3C209 25.06 211.24 27.3 214 27.3H217C217.55 27.3 218 26.85 218 26.3C218 25.75 217.55 25.3 217 25.3Z" fill="#323339"/>
</svg>
