<svg width="24" height="25" viewBox="0 0 24 25" fill="none" xmlns="http://www.w3.org/2000/svg">
<g clip-path="url(#clip0_860_5826)">
<path d="M12 2.30005C6.48 2.30005 2 6.78005 2 12.3C2 17.82 6.48 22.3 12 22.3C17.52 22.3 22 17.82 22 12.3C22 6.78005 17.52 2.30005 12 2.30005ZM12 6.30005C13.93 6.30005 15.5 7.87005 15.5 9.80005C15.5 11.73 13.93 13.3 12 13.3C10.07 13.3 8.5 11.73 8.5 9.80005C8.5 7.87005 10.07 6.30005 12 6.30005ZM12 20.3C9.97 20.3 7.57 19.48 5.86 17.42C7.55 16.1 9.68 15.3 12 15.3C14.32 15.3 16.45 16.1 18.14 17.42C16.43 19.48 14.03 20.3 12 20.3Z" fill="#43444B"/>
</g>
<defs>
<clipPath id="clip0_860_5826">
<rect width="24" height="24" fill="white" transform="translate(0 0.300049)"/>
</clipPath>
</defs>
</svg>
