<svg width="24" height="25" viewBox="0 0 24 25" fill="none" xmlns="http://www.w3.org/2000/svg">
<g clip-path="url(#clip0_860_5826)">
<path d="M12 2.69995C6.48 2.69995 2 7.17995 2 12.7C2 18.22 6.48 22.7 12 22.7C17.52 22.7 22 18.22 22 12.7C22 7.17995 17.52 2.69995 12 2.69995ZM12 6.69995C13.93 6.69995 15.5 8.26995 15.5 10.2C15.5 12.13 13.93 13.7 12 13.7C10.07 13.7 8.5 12.13 8.5 10.2C8.5 8.26995 10.07 6.69995 12 6.69995ZM12 20.7C9.97 20.7 7.57 19.88 5.86 17.82C7.55 16.5 9.68 15.7 12 15.7C14.32 15.7 16.45 16.5 18.14 17.82C16.43 19.88 14.03 20.7 12 20.7Z" fill="#212224"/>
</g>
<defs>
<clipPath id="clip0_860_5826">
<rect width="24" height="24" fill="white" transform="translate(0 0.699951)"/>
</clipPath>
</defs>
</svg>
