<svg width="22" height="22" viewBox="0 0 22 22" fill="none" xmlns="http://www.w3.org/2000/svg">
<rect x="0.5" y="0.5" width="21" height="21" rx="10.5" fill="#F9FAFE"/>
<rect x="0.5" y="0.5" width="21" height="21" rx="10.5" stroke="#C5C6CB"/>
<path d="M9.36642 14.7166C9.27753 14.7166 9.1942 14.7026 9.11642 14.6746C9.03865 14.647 8.96642 14.5999 8.89976 14.5333L6.03309 11.6666C5.91087 11.5444 5.85242 11.3859 5.85776 11.1913C5.86353 10.997 5.92753 10.8388 6.04976 10.7166C6.17198 10.5944 6.32753 10.5333 6.51642 10.5333C6.70531 10.5333 6.86087 10.5944 6.98309 10.7166L9.36642 13.0999L15.0164 7.44993C15.1386 7.32771 15.2971 7.2666 15.4918 7.2666C15.686 7.2666 15.8442 7.32771 15.9664 7.44993C16.0886 7.57216 16.1498 7.73038 16.1498 7.9246C16.1498 8.11927 16.0886 8.27771 15.9664 8.39994L9.83309 14.5333C9.76642 14.5999 9.6942 14.647 9.61642 14.6746C9.53865 14.7026 9.45531 14.7166 9.36642 14.7166Z" fill="#D9DADD"/>
</svg>
