<svg width="25" height="24" viewBox="0 0 25 24" fill="none" xmlns="http://www.w3.org/2000/svg">
<path d="M6 12C6 13.5913 6.63214 15.1174 7.75736 16.2426C8.88258 17.3679 10.4087 18 12 18C13.5933 18 15.12 17.3733 16.2667 16.2667L15.2667 15.2667C14.847 15.7111 14.3405 16.0647 13.7786 16.3056C13.2167 16.5464 12.6113 16.6693 12 16.6667C7.84 16.6667 5.76 11.64 8.7 8.7C11.64 5.76 16.6667 7.84667 16.6667 12H14.6667L17.3333 14.6667H17.4L20 12H18C18 10.4087 17.3679 8.88258 16.2426 7.75736C15.1174 6.63214 13.5913 6 12 6C10.4087 6 8.88258 6.63214 7.75736 7.75736C6.63214 8.88258 6 10.4087 6 12Z" fill="#323339"/>
</svg>
