<svg width="14" height="15" viewBox="0 0 14 15" fill="none" xmlns="http://www.w3.org/2000/svg">
<g clip-path="url(#clip0_1056_8995)">
<path d="M7.00024 14.3077L3.19037 10.4978C2.43686 9.74429 1.92372 8.78425 1.71583 7.73909C1.50794 6.69394 1.61464 5.61061 2.02245 4.6261C2.43025 3.64158 3.12083 2.80011 4.00687 2.20808C4.89291 1.61604 5.93461 1.30005 7.00024 1.30005C8.06587 1.30005 9.10757 1.61604 9.99361 2.20808C10.8797 2.80011 11.5702 3.64158 11.978 4.6261C12.3858 5.61061 12.4925 6.69394 12.2847 7.73909C12.0768 8.78425 11.5636 9.74429 10.8101 10.4978L7.00024 14.3077ZM9.96361 9.6513C10.5496 9.06522 10.9487 8.31852 11.1104 7.50563C11.272 6.69274 11.189 5.85017 10.8718 5.08446C10.5546 4.31875 10.0175 3.66429 9.32838 3.20384C8.63925 2.74339 7.82905 2.49762 7.00024 2.49762C6.17144 2.49762 5.36124 2.74339 4.67211 3.20384C3.98297 3.66429 3.44585 4.31875 3.12866 5.08446C2.81147 5.85017 2.72846 6.69274 2.89012 7.50563C3.05178 8.31852 3.45085 9.06522 4.03688 9.6513L7.00024 12.6147L9.96361 9.6513ZM7.00024 7.88526C6.68269 7.88526 6.37815 7.75911 6.15361 7.53457C5.92907 7.31003 5.80292 7.00549 5.80292 6.68794C5.80292 6.37039 5.92907 6.06585 6.15361 5.84131C6.37815 5.61677 6.68269 5.49062 7.00024 5.49062C7.31779 5.49062 7.62233 5.61677 7.84688 5.84131C8.07142 6.06585 8.19756 6.37039 8.19756 6.68794C8.19756 7.00549 8.07142 7.31003 7.84688 7.53457C7.62233 7.75911 7.31779 7.88526 7.00024 7.88526Z" fill="#75777F"/>
</g>
<defs>
<clipPath id="clip0_1056_8995">
<rect width="14" height="14" fill="white" transform="translate(0 0.300049)"/>
</clipPath>
</defs>
</svg>
