<svg xmlns="http://www.w3.org/2000/svg" width="14" height="14" fill="none"><g fill="#75777F" clip-path="url(#a)"><path d="M7 0a7 7 0 1 0 .001 14.001A7 7 0 0 0 7 0m0 12.813A5.813 5.813 0 0 1 7 1.188a5.813 5.813 0 0 1 0 11.625"/><path d="m9.73 8.978-2.228-1.61V3.5a.125.125 0 0 0-.125-.125h-.752A.125.125 0 0 0 6.5 3.5v4.303c0 .04.019.078.052.102l2.584 1.884c.056.04.134.028.175-.027l.447-.609a.125.125 0 0 0-.028-.175"/></g><defs><clipPath id="a"><path fill="#fff" d="M0 0h14v14H0z"/></clipPath></defs></svg>