<svg xmlns="http://www.w3.org/2000/svg" width="24" height="24" fill="none"><g clip-path="url(#a)"><path fill="#E9FFAC" d="M12 4c-4.416 0-8 3.584-8 8s3.584 8 8 8 8-3.584 8-8-3.584-8-8-8m0 14.4A6.41 6.41 0 0 1 5.6 12c0-3.528 2.872-6.4 6.4-6.4s6.4 2.872 6.4 6.4-2.872 6.4-6.4 6.4m3.104-9.368L10.4 13.736l-1.504-1.504a.797.797 0 1 0-1.128 1.128l2.072 2.072a.797.797 0 0 0 1.128 0l5.272-5.272a.797.797 0 0 0 0-1.128.806.806 0 0 0-1.136 0"/></g><defs><clipPath id="a"><path fill="#fff" d="M0 0h24v24H0z"/></clipPath></defs></svg>