<svg width="17" height="16" viewBox="0 0 17 16" fill="none" xmlns="http://www.w3.org/2000/svg">
<g clip-path="url(#clip0_7025_12462)">
<path d="M7.85991 4.79964H9.13993V6.07965H7.85991V4.79964ZM8.49992 11.1997C8.85192 11.1997 9.13993 10.9117 9.13993 10.5597V7.99967C9.13993 7.64767 8.85192 7.35967 8.49992 7.35967C8.14791 7.35967 7.85991 7.64767 7.85991 7.99967V10.5597C7.85991 10.9117 8.14791 11.1997 8.49992 11.1997ZM8.49992 1.59961C4.96708 1.59961 2.09985 4.46684 2.09985 7.99967C2.09985 11.5325 4.96708 14.3997 8.49992 14.3997C12.0328 14.3997 14.9 11.5325 14.9 7.99967C14.9 4.46684 12.0328 1.59961 8.49992 1.59961ZM8.49992 13.1197C5.67749 13.1197 3.37987 10.8221 3.37987 7.99967C3.37987 5.17725 5.67749 2.87962 8.49992 2.87962C11.3223 2.87962 13.62 5.17725 13.62 7.99967C13.62 10.8221 11.3223 13.1197 8.49992 13.1197Z" fill="#FA4250"/>
</g>
<defs>
<clipPath id="clip0_7025_12462">
<rect width="16" height="16" fill="white" transform="translate(0.5)"/>
</clipPath>
</defs>
</svg>
