<svg width="61" height="60" viewBox="0 0 61 60" fill="none" xmlns="http://www.w3.org/2000/svg">
<g clip-path="url(#clip0_5318_62912)">
<path d="M30.5 0C13.933 0 0.5 13.433 0.5 30C0.5 46.567 13.933 60 30.5 60C47.067 60 60.5 46.567 60.5 30C60.5 13.433 47.067 0 30.5 0ZM30.5 54.9107C16.7455 54.9107 5.58929 43.7545 5.58929 30C5.58929 16.2455 16.7455 5.08929 30.5 5.08929C44.2545 5.08929 55.4107 16.2455 55.4107 30C55.4107 43.7545 44.2545 54.9107 30.5 54.9107Z" fill="#EFF0F4"/>
<path d="M27.2857 41.7857C27.2857 42.6382 27.6244 43.4558 28.2271 44.0586C28.8299 44.6614 29.6475 45 30.5 45C31.3525 45 32.17 44.6614 32.7728 44.0586C33.3756 43.4558 33.7143 42.6382 33.7143 41.7857C33.7143 40.9332 33.3756 40.1157 32.7728 39.5129C32.17 38.9101 31.3525 38.5714 30.5 38.5714C29.6475 38.5714 28.8299 38.9101 28.2271 39.5129C27.6244 40.1157 27.2857 40.9332 27.2857 41.7857ZM28.8928 34.2857H32.1071C32.4018 34.2857 32.6428 34.0446 32.6428 33.75V15.5357C32.6428 15.2411 32.4018 15 32.1071 15H28.8928C28.5982 15 28.3571 15.2411 28.3571 15.5357V33.75C28.3571 34.0446 28.5982 34.2857 28.8928 34.2857Z" fill="#EFF0F4"/>
</g>
<defs>
<clipPath id="clip0_5318_62912">
<rect width="60" height="60" fill="white" transform="translate(0.5)"/>
</clipPath>
</defs>
</svg>
