<svg xmlns="http://www.w3.org/2000/svg" width="175" height="45" fill="none"><path fill="#121212" d="M168.003 10.745q-1.76 0-3.08-1.265-1.265-1.32-1.265-3.08t1.265-3.08q1.32-1.32 3.08-1.32 1.815 0 3.08 1.32 1.32 1.32 1.32 3.08t-1.32 3.08q-1.265 1.265-3.08 1.265m-3.52 30.8v-27.5h7.095v27.5zM158.482 20.865h-6.215v11.44q0 1.43.715 2.09.714.66 2.09.77 1.374.054 3.41-.055v6.435q-7.316.825-10.34-1.375-2.97-2.2-2.97-7.865v-11.44h-4.785v-6.82h4.785V8.49l7.095-2.145v7.7h6.215zM117.593 30.71q1.43 5.17 7.755 5.17 4.07 0 6.16-2.75l5.72 3.3q-4.07 5.886-11.99 5.885-6.82 0-10.945-4.125t-4.125-10.395q0-6.215 4.07-10.34 4.07-4.18 10.45-4.18 6.05 0 9.955 4.18 3.96 4.18 3.96 10.34 0 1.376-.275 2.915zm-.11-5.5h14.025q-.605-2.805-2.53-4.18-1.87-1.375-4.29-1.375-2.86 0-4.73 1.485-1.87 1.43-2.475 4.07M109.268 9.095q-5.83-.44-5.83 4.675v.275h5.83v6.82h-5.83v20.68h-7.095v-20.68h-3.96v-6.82h3.96v-.275q0-5.83 3.245-8.855t9.68-2.64zM78.118 13.275q4.51 0 7.425 3.025 2.97 3.026 2.97 8.36v16.885h-7.095V25.54q0-2.75-1.485-4.18-1.485-1.485-3.96-1.485-2.75 0-4.4 1.705t-1.65 5.115v14.85h-7.095v-27.5h7.095v3.08q2.585-3.85 8.195-3.85M55.153 38.135q-4.235 4.18-10.34 4.18t-10.34-4.18q-4.18-4.235-4.18-10.34t4.18-10.285q4.235-4.235 10.34-4.235t10.34 4.235q4.235 4.18 4.235 10.285t-4.235 10.34M39.478 33.24q2.145 2.145 5.335 2.145t5.335-2.145 2.145-5.445-2.145-5.445-5.335-2.145-5.335 2.145q-2.09 2.145-2.09 5.445t2.09 5.445M16.52 42.315q-6.215 0-10.395-4.18Q2 33.955 2 27.795t4.125-10.34q4.18-4.18 10.395-4.18 4.015 0 7.315 1.925t5.005 5.17l-6.105 3.575q-.825-1.704-2.53-2.695-1.65-.99-3.74-.99-3.19 0-5.28 2.145-2.09 2.09-2.09 5.39 0 3.246 2.09 5.39 2.09 2.09 5.28 2.09 2.145 0 3.795-.935 1.705-.99 2.53-2.695l6.16 3.52q-1.815 3.246-5.115 5.225-3.3 1.925-7.315 1.925"/></svg>
