<svg xmlns="http://www.w3.org/2000/svg" width="98" height="30" fill="none"><path fill="#B5F602" fill-rule="evenodd" d="m16.546 5.575-2.955 2.962V4.412h-5.32v4.125L5.411 5.67 1.646 9.437l2.78 2.787H.47v2.436h7.99c.51 0 1.022-.124 1.423-.446 1.014-.805 1.19-2.356 1.19-5.333 0 2.977.175 4.528 1.189 5.333.401.314.92.446 1.423.446h7.954v-2.37l-.066-.066H17.43l2.876-2.882-3.766-3.774zm5.101 9.758h-7.786c-.343 0-.693.066-1.007.205-1.54.695-1.773 2.187-1.773 5.661 0-2.209-.321-3.716-.847-4.66-.43-.767-1.27-1.206-2.152-1.206H.47v2.231h4.115L1.66 20.497l3.766 3.775 2.845-2.853v4.17h5.32v-4.17l3.021 3.028h.015l3.75-3.767-3.1-3.109h4.37z" clip-rule="evenodd"/><path fill="#121212" d="M31.108 23.086q-2.593 0-4.336-1.744-1.72-1.743-1.721-4.313 0-2.569 1.72-4.313 1.744-1.743 4.337-1.743 1.674 0 3.05.803 1.377.803 2.088 2.156L33.7 15.424a2.6 2.6 0 0 0-1.056-1.125 2.97 2.97 0 0 0-1.56-.413q-1.329 0-2.202.895-.872.871-.872 2.248 0 1.354.872 2.249.872.87 2.202.871.896 0 1.583-.39.712-.413 1.056-1.124l2.57 1.468a5.83 5.83 0 0 1-2.134 2.18q-1.377.803-3.051.803m16.114-1.744q-1.767 1.744-4.313 1.744-2.547 0-4.313-1.744-1.744-1.766-1.744-4.313 0-2.545 1.744-4.29 1.766-1.766 4.313-1.766t4.313 1.766q1.766 1.745 1.766 4.29 0 2.547-1.766 4.313m-6.539-2.041q.895.894 2.226.894t2.225-.895q.895-.894.895-2.27 0-1.377-.895-2.272-.894-.894-2.225-.894t-2.226.894q-.87.896-.871 2.271 0 1.377.871 2.271m16.535-8.328q1.881 0 3.097 1.262 1.24 1.26 1.24 3.487v7.043h-2.96v-6.676q0-1.147-.62-1.744-.62-.62-1.651-.62-1.148 0-1.836.712-.688.711-.688 2.133v6.195h-2.96v-11.47h2.96v1.284q1.078-1.606 3.418-1.606m12.575-1.744q-2.43-.183-2.431 1.95v.115h2.432v2.845h-2.432v8.626h-2.96v-8.626h-1.651v-2.845h1.651v-.115q0-2.43 1.354-3.693 1.353-1.261 4.037-1.101zm3.89 9.016q.597 2.157 3.235 2.157 1.698 0 2.57-1.147l2.386 1.376q-1.699 2.455-5.002 2.455-2.844 0-4.565-1.72-1.72-1.721-1.72-4.337 0-2.591 1.697-4.313 1.698-1.743 4.359-1.743 2.524 0 4.152 1.743 1.653 1.744 1.652 4.313 0 .574-.115 1.216zm-.045-2.294h5.85q-.252-1.17-1.056-1.743a2.94 2.94 0 0 0-1.789-.574q-1.193 0-1.973.62-.78.596-1.032 1.697m17.1-1.812h-2.592v4.772q0 .596.298.871.299.275.872.322.573.022 1.422-.023v2.684q-3.051.345-4.313-.574-1.239-.918-1.239-3.28v-4.772h-1.995v-2.845h1.995V8.977l2.96-.895v3.212h2.592zm3.555-4.221a1.8 1.8 0 0 1-1.812-1.813q0-.734.527-1.284.551-.552 1.285-.551.757 0 1.285.55.55.552.55 1.285 0 .735-.55 1.285-.528.528-1.285.528m-1.468 12.847v-11.47h2.96v11.47z"/></svg>