<svg width="110" height="34" viewBox="0 0 110 34" fill="none" xmlns="http://www.w3.org/2000/svg">
<path fill-rule="evenodd" clip-rule="evenodd" d="M18.2192 6.31813L14.8697 9.67565V5H8.8408V9.67565L5.5989 6.42591L1.3315 10.6953L4.48243 13.8539H0V16.6145H9.05582C9.63473 16.6145 10.2136 16.4736 10.6685 16.1088C11.8181 15.1969 12.0165 13.4394 12.0165 10.0653C12.0165 13.4394 12.215 15.1969 13.3646 16.1088C13.8194 16.4653 14.4066 16.6145 14.9773 16.6145H23.9917V13.9285L23.9173 13.8539H19.2198L22.4783 10.5876L18.2109 6.30984L18.2192 6.31813ZM24 17.3772H15.1757C14.787 17.3772 14.3901 17.4518 14.0345 17.6093C12.2895 18.3969 12.0248 20.0881 12.0248 24.0259C12.0248 21.5223 11.6609 19.8145 11.0655 18.7451C10.5775 17.8746 9.62646 17.3772 8.62578 17.3772H0V19.9057H4.66437L1.34804 23.2301L5.61544 27.5078L8.8408 24.2746V29H14.8697V24.2746L18.2936 27.7067H18.3101L22.561 23.4373L19.0462 19.914H24V17.3855V17.3772Z" fill="#B5F602"/>
<path d="M34.722 26.364C32.7633 26.364 31.1253 25.7053 29.808 24.388C28.508 23.0707 27.858 21.4413 27.858 19.5C27.858 17.5587 28.508 15.9293 29.808 14.612C31.1253 13.2947 32.7633 12.636 34.722 12.636C35.9873 12.636 37.14 12.9393 38.18 13.546C39.22 14.1527 40.0087 14.9673 40.546 15.99L37.66 17.68C37.4 17.1427 37.0013 16.718 36.464 16.406C35.944 16.094 35.3547 15.938 34.696 15.938C33.6907 15.938 32.8587 16.276 32.2 16.952C31.5413 17.6107 31.212 18.46 31.212 19.5C31.212 20.5227 31.5413 21.372 32.2 22.048C32.8587 22.7067 33.6907 23.036 34.696 23.036C35.372 23.036 35.97 22.8887 36.49 22.594C37.0273 22.282 37.426 21.8573 37.686 21.32L40.598 22.984C40.026 24.0067 39.22 24.83 38.18 25.454C37.14 26.0607 35.9873 26.364 34.722 26.364ZM52.9848 24.388C51.6501 25.7053 50.0208 26.364 48.0968 26.364C46.1728 26.364 44.5434 25.7053 43.2088 24.388C41.8914 23.0533 41.2328 21.424 41.2328 19.5C41.2328 17.576 41.8914 15.9553 43.2088 14.638C44.5434 13.3033 46.1728 12.636 48.0968 12.636C50.0208 12.636 51.6501 13.3033 52.9848 14.638C54.3194 15.9553 54.9868 17.576 54.9868 19.5C54.9868 21.424 54.3194 23.0533 52.9848 24.388ZM45.5748 22.074C46.2508 22.75 47.0914 23.088 48.0968 23.088C49.1021 23.088 49.9428 22.75 50.6188 22.074C51.2948 21.398 51.6328 20.54 51.6328 19.5C51.6328 18.46 51.2948 17.602 50.6188 16.926C49.9428 16.25 49.1021 15.912 48.0968 15.912C47.0914 15.912 46.2508 16.25 45.5748 16.926C44.9161 17.602 44.5868 18.46 44.5868 19.5C44.5868 20.54 44.9161 21.398 45.5748 22.074ZM64.3143 12.636C65.7356 12.636 66.9056 13.1127 67.8243 14.066C68.7603 15.0193 69.2283 16.3367 69.2283 18.018V26H65.8743V18.434C65.8743 17.5673 65.6403 16.9087 65.1723 16.458C64.7043 15.99 64.0803 15.756 63.3003 15.756C62.4336 15.756 61.7403 16.0247 61.2203 16.562C60.7003 17.0993 60.4403 17.9053 60.4403 18.98V26H57.0863V13H60.4403V14.456C61.2549 13.2427 62.5463 12.636 64.3143 12.636ZM78.5661 10.66C76.7288 10.5213 75.8101 11.258 75.8101 12.87V13H78.5661V16.224H75.8101V26H72.4561V16.224H70.5841V13H72.4561V12.87C72.4561 11.0327 72.9675 9.63733 73.9901 8.684C75.0128 7.73067 76.5381 7.31467 78.5661 7.436V10.66ZM82.975 20.878C83.4256 22.5073 84.6476 23.322 86.641 23.322C87.9236 23.322 88.8943 22.8887 89.553 22.022L92.257 23.582C90.9743 25.4367 89.085 26.364 86.589 26.364C84.4396 26.364 82.715 25.714 81.415 24.414C80.115 23.114 79.465 21.476 79.465 19.5C79.465 17.5413 80.1063 15.912 81.389 14.612C82.6716 13.2947 84.3183 12.636 86.329 12.636C88.2356 12.636 89.8043 13.2947 91.035 14.612C92.283 15.9293 92.907 17.5587 92.907 19.5C92.907 19.9333 92.8636 20.3927 92.777 20.878H82.975ZM82.923 18.278H89.553C89.3623 17.394 88.9636 16.7353 88.357 16.302C87.7676 15.8687 87.0916 15.652 86.329 15.652C85.4276 15.652 84.6823 15.886 84.093 16.354C83.5036 16.8047 83.1136 17.446 82.923 18.278ZM102.304 16.224H99.3655V21.632C99.3655 22.0827 99.4782 22.412 99.7035 22.62C99.9289 22.828 100.258 22.9493 100.692 22.984C101.125 23.0013 101.662 22.9927 102.304 22.958V26C99.9982 26.26 98.3689 26.0433 97.4155 25.35C96.4795 24.6567 96.0115 23.4173 96.0115 21.632V16.224H93.7495V13H96.0115V10.374L99.3655 9.36V13H102.304V16.224ZM106.332 11.44C105.778 11.44 105.292 11.2407 104.876 10.842C104.478 10.426 104.278 9.94067 104.278 9.386C104.278 8.83133 104.478 8.346 104.876 7.93C105.292 7.514 105.778 7.306 106.332 7.306C106.904 7.306 107.39 7.514 107.788 7.93C108.204 8.346 108.412 8.83133 108.412 9.386C108.412 9.94067 108.204 10.426 107.788 10.842C107.39 11.2407 106.904 11.44 106.332 11.44ZM104.668 26V13H108.022V26H104.668Z" fill="black"/>
</svg>
