<svg xmlns="http://www.w3.org/2000/svg" viewBox="0 0 115 42">
  <path
    d="M80.827 33.66v-6.693L98.037.141h10.629v26.714h5.174v6.805h-5.174v7.199h-8.042v-7.2zm8.549-6.805h11.36V9.42h-.394L89.376 26.517zM.16 33.66v-6.693L17.37.141h10.629v26.714h5.174v6.805h-5.174v7.199h-8.042v-7.2zm8.548-6.805H20.07V9.42h-.394L8.708 26.517z"
    fill="currentColor"
  />
  <path
    fill="currentColor"
    fill-rule="evenodd"
    d="M67.327 3.058 61.73 8.653V.865H51.656v7.79l-5.42-5.42-7.125 7.125 5.27 5.27h-7.49v5.007h14.497c4.92-.777 5.585-3.35 5.585-11.314 0 7.963.664 10.537 5.585 11.314H76.99v-4.868l-.036-.14h-7.949l5.447-5.446zm9.662 18.029H64.031c-6.265.52-7.058 2.788-7.058 11.485 0-8.697-.792-10.966-7.057-11.485H36.892v4.619h7.787l-5.542 5.542 7.125 7.125 5.394-5.394v7.88H61.73V32.98l5.723 5.722.03-.017 7.1-7.102-5.878-5.878h8.283z"
    clip-rule="evenodd"
  />
</svg>
