<svg viewBox="0 0 30 30" fill="none" xmlns="http://www.w3.org/2000/svg">
<g clip-path="url(#clip0_7226_1026)">
<rect width="30" height="30" rx="15" fill="white"/>
<rect width="30" height="30" fill="#D9DADD"/>
<g clip-path="url(#clip1_7226_1026)">
<path fill-rule="evenodd" clip-rule="evenodd" d="M19.4852 6.97564L17.0061 9.46075V6H12.5436V9.46075L10.1441 7.05541L6.98553 10.2155L9.31773 12.5533H6V14.5967H12.7028C13.1313 14.5967 13.5598 14.4923 13.8965 14.2223C14.7473 13.5474 14.8942 12.2465 14.8942 9.74915C14.8942 12.2465 15.0411 13.5474 15.892 14.2223C16.2287 14.4862 16.6633 14.5967 17.0856 14.5967H23.7578V12.6086L23.7027 12.5533H20.2259L22.6376 10.1357L19.4791 6.9695L19.4852 6.97564ZM23.764 15.1612H17.2326C16.9448 15.1612 16.651 15.2164 16.3878 15.333C15.0962 15.9159 14.9003 17.1677 14.9003 20.0823C14.9003 18.2292 14.631 16.9652 14.1903 16.1736C13.8291 15.5293 13.1252 15.1612 12.3845 15.1612H6V17.0327H9.4524L6.99777 19.4932L10.1563 22.6595L12.5436 20.2664V23.764H17.0061V20.2664L19.5403 22.8067H19.5525L22.6989 19.6466L20.0973 17.0388H23.764V15.1673V15.1612Z" fill="white"/>
</g>
</g>
<defs>
<clipPath id="clip0_7226_1026">
<rect width="30" height="30" rx="15" fill="white"/>
</clipPath>
<clipPath id="clip1_7226_1026">
<rect width="18" height="18" fill="white" transform="translate(6 6)"/>
</clipPath>
</defs>
</svg>
