<svg viewBox="0 0 20 20" xmlns="http://www.w3.org/2000/svg">
  <path d="M7.75146 15.8337H13.0848C13.3609 15.8337 13.5848 15.6098 13.5848 15.3337V8.25033C13.5848 7.92949 13.8473 7.66699 14.1681 7.66699C14.489 7.66699 14.7515 7.92949 14.7515 8.25033V15.8337C14.7515 16.4753 14.2265 17.0003 13.5848 17.0003H7.75146C7.43063 17.0003 7.16813 16.7378 7.16813 16.417C7.16813 16.0962 7.43063 15.8337 7.75146 15.8337Z" fill="currentColor"/>
  <path fill-rule="evenodd" clip-rule="evenodd" d="M11.4346 15.0259C12.1677 15.0257 12.7675 14.426 12.7676 13.6929V5.69287C12.7676 4.95965 12.1678 4.35907 11.4346 4.35889H5.43457C4.70124 4.35889 4.10059 4.95954 4.10059 5.69287V13.6929C4.10067 14.4261 4.70129 15.0259 5.43457 15.0259H11.4346ZM5.92383 13.687C5.64768 13.687 5.42383 13.4632 5.42383 13.187V6.18701C5.42383 5.91087 5.64769 5.68701 5.92383 5.68701H10.9326C11.2088 5.68701 11.4326 5.91087 11.4326 6.18701V13.187C11.4326 13.4632 11.2088 13.687 10.9326 13.687H5.92383Z" fill="currentColor"/>
</svg>
