<svg xmlns="http://www.w3.org/2000/svg" viewBox="0 0 16 16">
  <path
    fill="currentColor"
    d="M8 9.031 5.825 11.206a.71.71 0 0 1-.525.207.71.71 0 0 1-.525-.207.71.71 0 0 1-.206-.525q0-.318.206-.525L6.95 7.981 4.775 5.825A.71.71 0 0 1 4.57 5.3q0-.318.206-.525A.71.71 0 0 1 5.3 4.57q.32 0 .525.206L8 6.95l2.156-2.175a.71.71 0 0 1 .525-.206q.32 0 .525.206a.73.73 0 0 1 .225.534.67.67 0 0 1-.225.516L9.031 7.981l2.175 2.175a.71.71 0 0 1 .207.525.71.71 0 0 1-.207.525.73.73 0 0 1-.534.225.67.67 0 0 1-.516-.225z"
  />
</svg>
