<svg viewBox="0 0 50 50" xmlns="http://www.w3.org/2000/svg">
  <path
    d="m50 42.112-5.3-1.529 5.239-1.741-.729-2.215-5.278 1.75 3.352-4.46-1.848-1.41-3.516 4.672v-5.863H39.6v5.863l-3.516-4.673-1.856 1.41 3.36 4.46-5.279-1.749-.728 2.215 5.239 1.741-5.301 1.53.634 2.245 5.591-1.615-3.5 4.672 1.856 1.403 3.5-4.673V50h2.318v-5.855l3.5 4.673 1.848-1.403-3.492-4.672 5.583 1.615zM16.667 0H0v16.667h16.667zm16.676 16.658H16.677v16.667h16.666zM50.01-.009H33.344v16.667H50.01zM16.667 33.325H0v16.667h16.667z"
    fill="currentColor"
  />
</svg>
