<svg viewBox="0 0 28 29" fill="none" xmlns="http://www.w3.org/2000/svg">
<path d="M12.8332 4.54858C17.0213 4.54858 20.417 7.94358 20.4172 12.1316L20.4074 12.5222C20.3085 14.4707 19.472 16.2231 18.174 17.5115L22.5686 22.9177C22.8502 23.2642 22.7979 23.7737 22.4514 24.0554C22.105 24.337 21.5954 24.2845 21.3137 23.9382L16.9123 18.5242C15.7343 19.2774 14.335 19.7156 12.8332 19.7156L12.4436 19.7058C8.4368 19.5029 5.25047 16.1887 5.25021 12.1316C5.25039 7.94369 8.64532 4.54876 12.8332 4.54858ZM12.8332 6.16577C9.53852 6.16595 6.86758 8.83689 6.8674 12.1316C6.86766 15.4262 9.53857 18.0982 12.8332 18.0984C16.128 18.0984 18.7998 15.4263 18.8 12.1316C18.7998 8.83678 16.1281 6.16577 12.8332 6.16577Z" fill="currentColor"/>
</svg>
