<svg xmlns="http://www.w3.org/2000/svg" viewBox="0 0 24 25">
  <path
    d="M23.0088 6.58222C22.6498 5.75089 22.1321 4.99754 21.4847 4.36436C20.8369 3.72929 20.073 3.2246 19.2347 2.87775C18.3655 2.51666 17.4331 2.33184 16.4919 2.334C15.1713 2.334 13.8829 2.69561 12.7633 3.37865C12.4954 3.54204 12.241 3.7215 11.9999 3.91704C11.7588 3.7215 11.5044 3.54204 11.2365 3.37865C10.1169 2.69561 8.82847 2.334 7.50793 2.334C6.55704 2.334 5.63561 2.51615 4.76507 2.87775C3.924 3.22597 3.16597 3.72686 2.51507 4.36436C1.86685 4.99683 1.34903 5.75035 0.990967 6.58222C0.618645 7.4474 0.428467 8.36615 0.428467 9.31168C0.428467 10.2036 0.61061 11.1331 0.972217 12.0786C1.2749 12.8688 1.70882 13.6885 2.26329 14.5161C3.14186 15.826 4.3499 17.192 5.8499 18.5769C8.33561 20.8724 10.7972 22.4581 10.9017 22.5224L11.5365 22.9295C11.8178 23.109 12.1794 23.109 12.4606 22.9295L13.0954 22.5224C13.1999 22.4554 15.6588 20.8724 18.1472 18.5769C19.6472 17.192 20.8553 15.826 21.7338 14.5161C22.2883 13.6885 22.7249 12.8688 23.0249 12.0786C23.3865 11.1331 23.5686 10.2036 23.5686 9.31168C23.5713 8.36615 23.3811 7.4474 23.0088 6.58222ZM11.9999 20.8108C11.9999 20.8108 2.46418 14.701 2.46418 9.31168C2.46418 6.58222 4.72222 4.36972 7.50793 4.36972C9.46597 4.36972 11.1642 5.46257 11.9999 7.059C12.8356 5.46257 14.5338 4.36972 16.4919 4.36972C19.2776 4.36972 21.5356 6.58222 21.5356 9.31168C21.5356 14.701 11.9999 20.8108 11.9999 20.8108Z"
    fill="currentColor"
  />
</svg>
