<svg xmlns="http://www.w3.org/2000/svg" viewBox="0 0 24 24" fill="none">
  <g data-weight="regular" style="display:var(--icon-w-regular,inline)">
    <path d="M5.38775 19.6829H9.45648V14.0879C9.45648 13.8359 9.54207 13.6246 9.71326 13.4542C9.88371 13.283 10.0949 13.1974 10.3469 13.1974H13.6531C13.9051 13.1974 14.1166 13.283 14.2878 13.4542C14.4583 13.6246 14.5435 13.8359 14.5435 14.0879V19.6829H18.6122V10.104C18.6122 9.99085 18.5876 9.888 18.5384 9.79542C18.4892 9.70285 18.422 9.62204 18.3367 9.55298L12.4033 5.08089C12.2902 4.98245 12.1557 4.93322 12 4.93322C11.8442 4.93322 11.7102 4.98245 11.5977 5.08089L5.66326 9.55298C5.57877 9.62351 5.51154 9.70432 5.46158 9.79542C5.41162 9.88653 5.38701 9.98938 5.38775 10.104V19.6829ZM4.28571 19.6829V10.104C4.28571 9.82187 4.34889 9.55481 4.47526 9.30281C4.60162 9.05081 4.77575 8.84326 4.99762 8.68016L10.9321 4.18604C11.2429 3.94873 11.5977 3.83008 11.9967 3.83008C12.3956 3.83008 12.7527 3.94873 13.0679 4.18604L19.0024 8.67906C19.225 8.84216 19.3991 9.05008 19.5247 9.30281C19.6511 9.55481 19.7143 9.82187 19.7143 10.104V19.6829C19.7143 19.9783 19.6044 20.2358 19.3848 20.4555C19.1651 20.6751 18.9076 20.785 18.6122 20.785H14.3319C14.0792 20.785 13.8676 20.6998 13.6971 20.5293C13.5267 20.3581 13.4415 20.1465 13.4415 19.8945V14.3006H10.5585V19.8945C10.5585 20.1473 10.4733 20.3589 10.3028 20.5293C10.1324 20.6998 9.92118 20.785 9.66918 20.785H5.38775C5.0924 20.785 4.83489 20.6751 4.61522 20.4555C4.39554 20.2358 4.28571 19.9783 4.28571 19.6829Z" fill="currentColor"/>
  </g>
  <g data-weight="fill" style="display:var(--icon-w-fill,none)">
    <path d="M4.28571 10.104V19.6829C4.28571 19.9783 4.39554 20.2358 4.61522 20.4555C4.83489 20.6751 5.0924 20.785 5.38775 20.785H9.66918C9.92118 20.785 10.1324 20.6998 10.3028 20.5293C10.4733 20.3589 10.5585 20.1473 10.5585 19.8945V14.3006H13.4415V19.8945C13.4415 20.1465 13.5267 20.3581 13.6971 20.5293C13.8676 20.6998 14.0792 20.785 14.3319 20.785H18.6122C18.9076 20.785 19.1651 20.6751 19.3848 20.4555C19.6044 20.2358 19.7143 19.9783 19.7143 19.6829V10.104C19.7143 9.82187 19.6511 9.55481 19.5247 9.30281C19.3991 9.05008 19.225 8.84216 19.0024 8.67906L13.0679 4.18604C12.7527 3.94873 12.3956 3.83008 11.9967 3.83008C11.5977 3.83008 11.2429 3.94873 10.9321 4.18604L4.99762 8.68016C4.77575 8.84326 4.60162 9.05081 4.47526 9.30281C4.34889 9.55481 4.28571 9.82187 4.28571 10.104Z" fill="currentColor"/>
  </g>
</svg>
