<svg viewBox="0 0 14 14" xmlns="http://www.w3.org/2000/svg">
    <path
        d="M7.00134 0.955566C10.3396 0.955566 13.0463 3.66223 13.0463 7.00049C13.046 10.3385 10.3394 13.0444 7.00134 13.0444C3.66333 13.0443 0.957661 10.3385 0.957397 7.00049C0.957397 3.66229 3.66317 0.95566 7.00134 0.955566ZM7.00232 2.19971C4.35135 2.19971 2.20154 4.34952 2.20154 7.00049C2.2018 9.65123 4.35151 11.8003 7.00232 11.8003C9.65291 11.8 11.8019 9.65108 11.8021 7.00049C11.8021 4.34967 9.65308 2.19995 7.00232 2.19971Z"
        fill="currentColor" />
    <circle cx="7.00022" cy="4.68894" r="0.888889" fill="currentColor" />
    <path
        d="M6.33398 9.66679V7.1779C6.33398 6.80971 6.63246 6.51123 7.00065 6.51123C7.36884 6.51123 7.66732 6.80971 7.66732 7.1779V9.66679C7.66732 10.035 7.36884 10.3335 7.00065 10.3335C6.63246 10.3335 6.33398 10.035 6.33398 9.66679Z"
        fill="currentColor" />
</svg>