<svg width="78" height="21" viewBox="0 0 78 21" fill="none" xmlns="http://www.w3.org/2000/svg">
<path d="M8.85352 6.75586C9.9863 6.75586 11.0191 7.02629 11.9502 7.56738C12.8811 8.10846 13.5874 8.83505 14.0684 9.74707L11.4844 11.2549C11.2516 10.7756 10.8941 10.3964 10.4131 10.1182C9.94774 9.84009 9.42043 9.70123 8.83105 9.70117C7.93103 9.70117 7.18537 10.0025 6.5957 10.6055C6.00625 11.1929 5.71191 11.9505 5.71191 12.8779C5.71193 13.7899 6.00621 14.5475 6.5957 15.1504C7.18537 15.7379 7.93103 16.0312 8.83105 16.0312C9.43597 16.0312 9.97116 15.9003 10.4365 15.6377C10.9176 15.3594 11.275 14.9802 11.5078 14.501L14.1143 15.9854C13.6022 16.8973 12.8811 17.632 11.9502 18.1885C11.0191 18.7296 9.9863 19 8.85352 19C7.10026 18.9999 5.6343 18.4121 4.45508 17.2373C3.29127 16.0624 2.709 14.6094 2.70898 12.8779C2.70898 11.1464 3.29126 9.6935 4.45508 8.51855C5.63432 7.34372 7.10023 6.75596 8.85352 6.75586ZM21.0596 6.75586C22.7819 6.75592 24.2408 7.35071 25.4355 8.54102C26.6304 9.71596 27.2275 11.1619 27.2275 12.8779C27.2275 14.5938 26.6302 16.047 25.4355 17.2373C24.2408 18.4122 22.7819 18.9999 21.0596 19C19.3371 19 17.8784 18.4122 16.6836 17.2373C15.5043 16.0469 14.9141 14.5939 14.9141 12.8779C14.9141 11.1619 15.5043 9.71596 16.6836 8.54102C17.8784 7.35083 19.3373 6.75586 21.0596 6.75586ZM55.5176 6.75586C57.2244 6.75591 58.6288 7.34366 59.7305 8.51855C60.8476 9.69346 61.4062 11.1465 61.4062 12.8779C61.4062 13.2643 61.3676 13.6738 61.29 14.1064H52.5146C52.9181 15.5597 54.0123 16.2871 55.7969 16.2871C56.9451 16.2871 57.8137 15.8999 58.4033 15.127L60.8242 16.5186C59.6759 18.1727 57.9845 19 55.75 19C53.8259 19 52.282 18.4202 51.1182 17.2607C49.9544 16.1013 49.3721 14.6403 49.3721 12.8779C49.3721 11.1311 49.9466 9.678 51.0947 8.51855C52.243 7.34361 53.7175 6.75586 55.5176 6.75586ZM67.1904 7.07227H69.8213V9.94824H67.1904V14.7715C67.1904 15.1734 67.2914 15.4678 67.4932 15.6533C67.6949 15.8387 67.9901 15.9466 68.3779 15.9775C68.7658 15.993 69.2472 15.985 69.8213 15.9541V18.668C67.7577 18.8998 66.2988 18.7061 65.4453 18.0879C64.6074 17.4695 64.1875 16.3638 64.1875 14.7715V9.94824H62.1631V7.07227H64.1875V4.73047L67.1904 3.82617V7.07227ZM44.9395 3.23145C45.855 2.38119 47.2206 2.00995 49.0361 2.11816V4.99316C47.3913 4.86949 46.5684 5.52708 46.5684 6.96484V7.08008H49.0361V9.95605H46.5684V18.6758H43.5654V9.95605H41.8896V7.08008H43.5654V6.96484C43.5654 5.32611 44.0239 4.08173 44.9395 3.23145ZM35.8086 6.75586C37.081 6.75586 38.1287 7.18096 38.9512 8.03125C39.789 8.88146 40.2079 10.0563 40.208 11.5557V18.6748H37.2051V11.9268C37.205 11.1541 36.9958 10.5669 36.5771 10.165C36.1583 9.74771 35.5995 9.53817 34.9014 9.53809C34.1255 9.53809 33.5046 9.77856 33.0391 10.2578C32.5736 10.7371 32.3408 11.4556 32.3408 12.4141V18.6748H29.3379V7.08008H32.3408V8.37891C33.0701 7.29691 34.226 6.75589 35.8086 6.75586ZM74.9414 18.6738H71.9395V7.07812H74.9414V18.6738ZM21.0596 9.67773C20.1596 9.67773 19.4069 9.97921 18.8018 10.582C18.2121 11.185 17.917 11.9503 17.917 12.8779C17.917 13.8055 18.2121 14.5709 18.8018 15.1738C19.4069 15.7766 20.1597 16.0781 21.0596 16.0781C21.9595 16.0781 22.7123 15.7767 23.3174 15.1738C23.9225 14.5709 24.2246 13.8055 24.2246 12.8779C24.2246 11.9504 23.9225 11.1849 23.3174 10.582C22.7123 9.97916 21.9595 9.6778 21.0596 9.67773ZM55.5176 9.44531C54.7107 9.44531 54.0432 9.65485 53.5156 10.0723C52.9881 10.4742 52.6385 11.0461 52.4678 11.7881H58.4033C58.2326 10.9996 57.8761 10.4119 57.333 10.0254C56.8055 9.63895 56.2003 9.44535 55.5176 9.44531ZM73.4287 2C73.9408 2.00001 74.3755 2.18561 74.7324 2.55664C75.1047 2.92764 75.291 3.36084 75.291 3.85547C75.2909 4.34989 75.1045 4.78244 74.7324 5.15332C74.3755 5.50889 73.9408 5.68749 73.4287 5.6875C72.9321 5.6875 72.4974 5.5089 72.125 5.15332C71.7684 4.78244 71.5899 4.3499 71.5898 3.85547C71.5898 3.36082 71.7682 2.92764 72.125 2.55664C72.4974 2.18561 72.9321 2 73.4287 2Z" fill="#93959D"/>
</svg>
