<svg xmlns="http://www.w3.org/2000/svg" viewBox="0 0 32 24" fill="none">
  <path d="M31.1353 23.5H24.3901V8.38867H31.1353V23.5ZM18.6812 23.2812H11.7661V12.2842H18.6812V23.2812ZM7.56982 12.3086C7.77894 14.4948 9.57495 16.202 11.7603 16.2021V23.2734C5.76717 23.2733 0.886273 18.3992 0.666504 12.3086H7.56982ZM11.7642 7.57129C9.57869 7.57129 7.78275 9.27843 7.57373 11.4648H0.67041C0.886518 5.37044 5.77091 0.5 11.7642 0.5V7.57129ZM22.8696 0.507812H31.3335V7.59082H22.4868V7.58887C20.4778 7.77472 18.8769 9.4077 18.6802 11.4648H11.7759C11.9873 5.5009 16.6699 0.711222 22.4868 0.508789V0.507812H22.5513C22.6571 0.504752 22.7631 0.500004 22.8696 0.5V0.507812Z" fill="url(#paint0_linear_8566_215)"/>
  <defs>
    <linearGradient id="paint0_linear_8566_215" x1="14.2368" y1="-29.1874" x2="31.9403" y2="40.6546" gradientUnits="userSpaceOnUse">
      <stop stop-color="#89EA5D"/>
      <stop offset="1" stop-color="#B5F602"/>
    </linearGradient>
  </defs>
</svg>