<svg width="180" height="180" viewBox="0 0 180 180" fill="none" xmlns="http://www.w3.org/2000/svg">
<g filter="url(#filter0_i_8387_42773)">
<path d="M136.173 106.366H115.587V61.2637H136.173V106.366ZM98.1499 105.681H77.0435C58.7514 105.68 43.8544 91.1334 43.1841 72.9551H64.2544C64.8923 79.4805 70.3733 84.575 77.0435 84.5752V72.8594H98.1499V105.681ZM77.0552 58.8105C70.3849 58.8105 64.9032 63.9053 64.2651 70.4307H43.1948C43.8545 52.2416 58.7631 37.7051 77.0552 37.7051V58.8105ZM110.964 37.7168H136.798V58.8545H109.933C103.737 59.3477 98.7792 64.2448 98.1743 70.4307H77.104C77.7497 52.6295 92.0424 38.3295 109.798 37.7275V37.7168H110.083C110.376 37.7093 110.67 37.7051 110.964 37.7051V37.7168Z" fill="url(#paint0_linear_8387_42773)"/>
</g>
<path d="M51.1108 126.499C52.5722 126.499 53.9039 126.848 55.105 127.546C56.306 128.244 57.2168 129.182 57.8374 130.358L54.5044 132.303C54.2041 131.684 53.7431 131.196 53.1226 130.837C52.5222 130.478 51.8419 130.299 51.0815 130.299C49.9206 130.299 48.9594 130.687 48.1987 131.465C47.438 132.223 47.0571 133.201 47.0571 134.397C47.0572 135.574 47.4381 136.551 48.1987 137.329C48.9594 138.087 49.9206 138.466 51.0815 138.466C51.8621 138.466 52.5524 138.296 53.1528 137.957C53.7734 137.598 54.2344 137.109 54.5347 136.491L57.897 138.406C57.2364 139.583 56.3059 140.53 55.105 141.248C53.9039 141.946 52.5722 142.295 51.1108 142.295C48.849 142.295 46.9573 141.537 45.436 140.021C43.9348 138.506 43.1842 136.631 43.1841 134.397C43.1841 132.164 43.9347 130.288 45.436 128.772C46.9573 127.257 48.849 126.499 51.1108 126.499ZM66.8569 126.499C69.0788 126.499 70.9602 127.267 72.5015 128.803C74.0429 130.319 74.814 132.184 74.814 134.397C74.8139 136.611 74.0428 138.486 72.5015 140.021C70.9602 141.537 69.0787 142.295 66.8569 142.295C64.6349 142.295 62.7528 141.537 61.2114 140.021C59.6901 138.486 58.9293 136.611 58.9292 134.397C58.9292 132.184 59.6901 130.319 61.2114 128.803C62.7528 127.267 64.6349 126.499 66.8569 126.499ZM111.309 126.499C113.511 126.499 115.322 127.257 116.744 128.772C118.185 130.288 118.906 132.164 118.906 134.397C118.906 134.896 118.855 135.424 118.755 135.982H107.435C107.956 137.857 109.367 138.795 111.669 138.795C113.151 138.795 114.271 138.296 115.032 137.299L118.155 139.094C116.673 141.228 114.491 142.295 111.609 142.295C109.127 142.295 107.135 141.548 105.633 140.052C104.132 138.556 103.381 136.671 103.381 134.397C103.381 132.144 104.123 130.268 105.604 128.772C107.085 127.257 108.987 126.499 111.309 126.499ZM126.366 126.914H129.758V130.624H126.366V136.847C126.366 137.365 126.496 137.744 126.756 137.983C127.017 138.223 127.397 138.362 127.897 138.402C128.397 138.422 129.018 138.412 129.758 138.372V141.872C127.096 142.171 125.215 141.922 124.114 141.124C123.033 140.326 122.492 138.901 122.492 136.847V130.624H119.879V126.914H122.492V123.893L126.366 122.726V126.914ZM85.8843 126.499C87.5258 126.499 88.877 127.048 89.938 128.145C91.0188 129.241 91.559 130.757 91.5591 132.691V141.876H87.686V133.171C87.686 132.174 87.416 131.415 86.8755 130.896C86.335 130.358 85.6141 130.089 84.7134 130.089C83.7125 130.089 82.9116 130.398 82.311 131.017C81.7105 131.635 81.4106 132.562 81.4106 133.799V141.876H77.5366V126.918H81.4106V128.593C82.3515 127.197 83.8427 126.499 85.8843 126.499ZM136.366 141.876H132.492V126.918H136.366V141.876ZM97.6626 121.951C98.8437 120.854 100.606 120.375 102.948 120.515V124.225C100.826 124.065 99.7642 124.913 99.7642 126.768V126.917H102.948V130.627H99.7642V141.875H95.8911V130.627H93.729V126.917H95.8911V126.768C95.8911 124.654 96.4816 123.048 97.6626 121.951ZM66.8569 130.269C65.6959 130.269 64.7246 130.658 63.9438 131.436C63.1833 132.213 62.8032 133.201 62.8032 134.397C62.8033 135.594 63.1834 136.581 63.9438 137.358C64.7246 138.136 65.6959 138.525 66.8569 138.525C68.0178 138.525 68.9884 138.136 69.769 137.358C70.5496 136.581 70.9399 135.594 70.9399 134.397C70.9399 133.201 70.5497 132.213 69.769 131.436C68.9884 130.658 68.0178 130.269 66.8569 130.269ZM111.309 129.97C110.268 129.97 109.407 130.239 108.726 130.777C108.046 131.296 107.596 132.034 107.375 132.991H115.032C114.812 131.974 114.351 131.216 113.651 130.718C112.97 130.219 112.19 129.97 111.309 129.97ZM134.414 120.366C135.074 120.366 135.635 120.605 136.095 121.084C136.576 121.563 136.816 122.122 136.816 122.76C136.816 123.398 136.575 123.956 136.095 124.435C135.635 124.893 135.074 125.123 134.414 125.123C133.773 125.123 133.212 124.893 132.732 124.435C132.272 123.956 132.042 123.398 132.042 122.76C132.042 122.122 132.272 121.563 132.732 121.084C133.212 120.605 133.773 120.366 134.414 120.366Z" fill="url(#paint1_linear_8387_42773)"/>
<defs>
<filter id="filter0_i_8387_42773" x="43.1841" y="37.7051" width="93.6143" height="69.1136" filterUnits="userSpaceOnUse" color-interpolation-filters="sRGB">
<feFlood flood-opacity="0" result="BackgroundImageFix"/>
<feBlend mode="normal" in="SourceGraphic" in2="BackgroundImageFix" result="shape"/>
<feColorMatrix in="SourceAlpha" type="matrix" values="0 0 0 0 0 0 0 0 0 0 0 0 0 0 0 0 0 0 127 0" result="hardAlpha"/>
<feOffset dy="0.452514"/>
<feGaussianBlur stdDeviation="0.226257"/>
<feComposite in2="hardAlpha" operator="arithmetic" k2="-1" k3="1"/>
<feColorMatrix type="matrix" values="0 0 0 0 0 0 0 0 0 0 0 0 0 0 0 0 0 0 0.25 0"/>
<feBlend mode="normal" in2="shape" result="effect1_innerShadow_8387_42773"/>
</filter>
<linearGradient id="paint0_linear_8387_42773" x1="84.6088" y1="-50.9197" x2="136.429" y2="158.128" gradientUnits="userSpaceOnUse">
<stop stop-color="#89EA5D"/>
<stop offset="1" stop-color="#B5F602"/>
</linearGradient>
<linearGradient id="paint1_linear_8387_42773" x1="90" y1="142.295" x2="78.1019" y2="89.4367" gradientUnits="userSpaceOnUse">
<stop stop-color="#B5F602"/>
<stop offset="1" stop-color="#89EA5D"/>
</linearGradient>
</defs>
</svg>
