<svg width="74" height="17" viewBox="0 0 74 17" fill="none" xmlns="http://www.w3.org/2000/svg">
<path d="M6.85352 4.75586C7.9863 4.75586 9.01914 5.02629 9.9502 5.56738C10.8811 6.10846 11.5874 6.83505 12.0684 7.74707L9.48438 9.25488C9.25161 8.77563 8.89413 8.39644 8.41309 8.11816C7.94774 7.84009 7.42043 7.70123 6.83105 7.70117C5.93103 7.70117 5.18537 8.00254 4.5957 8.60547C4.00625 9.1929 3.71191 9.95051 3.71191 10.8779C3.71193 11.7899 4.00621 12.5475 4.5957 13.1504C5.18537 13.7379 5.93103 14.0312 6.83105 14.0312C7.43597 14.0312 7.97116 13.9003 8.43652 13.6377C8.91757 13.3594 9.27505 12.9802 9.50781 12.501L12.1143 13.9854C11.6022 14.8973 10.8811 15.632 9.9502 16.1885C9.01914 16.7296 7.9863 17 6.85352 17C5.10026 16.9999 3.6343 16.4121 2.45508 15.2373C1.29127 14.0624 0.708999 12.6094 0.708984 10.8779C0.708984 9.14643 1.29126 7.6935 2.45508 6.51855C3.63432 5.34372 5.10023 4.75596 6.85352 4.75586ZM19.0596 4.75586C20.7819 4.75592 22.2408 5.35071 23.4355 6.54102C24.6304 7.71596 25.2275 9.16189 25.2275 10.8779C25.2275 12.5938 24.6302 14.047 23.4355 15.2373C22.2408 16.4122 20.7819 16.9999 19.0596 17C17.3371 17 15.8784 16.4122 14.6836 15.2373C13.5043 14.0469 12.9141 12.5939 12.9141 10.8779C12.9141 9.16189 13.5043 7.71596 14.6836 6.54102C15.8784 5.35083 17.3373 4.75586 19.0596 4.75586ZM53.5176 4.75586C55.2244 4.75591 56.6288 5.34366 57.7305 6.51855C58.8476 7.69346 59.4062 9.14654 59.4062 10.8779C59.4062 11.2643 59.3676 11.6738 59.29 12.1064H50.5146C50.9181 13.5597 52.0123 14.2871 53.7969 14.2871C54.9451 14.2871 55.8137 13.8999 56.4033 13.127L58.8242 14.5186C57.6759 16.1727 55.9845 17 53.75 17C51.8259 17 50.282 16.4202 49.1182 15.2607C47.9544 14.1013 47.3721 12.6403 47.3721 10.8779C47.3721 9.13109 47.9466 7.678 49.0947 6.51855C50.243 5.34361 51.7175 4.75586 53.5176 4.75586ZM65.1904 5.07227H67.8213V7.94824H65.1904V12.7715C65.1904 13.1734 65.2914 13.4678 65.4932 13.6533C65.6949 13.8387 65.9901 13.9466 66.3779 13.9775C66.7658 13.993 67.2472 13.985 67.8213 13.9541V16.668C65.7577 16.8998 64.2988 16.7061 63.4453 16.0879C62.6074 15.4695 62.1875 14.3638 62.1875 12.7715V7.94824H60.1631V5.07227H62.1875V2.73047L65.1904 1.82617V5.07227ZM42.9395 1.23145C43.855 0.381187 45.2206 0.0099479 47.0361 0.118164V2.99316C45.3913 2.86949 44.5684 3.52708 44.5684 4.96484V5.08008H47.0361V7.95605H44.5684V16.6758H41.5654V7.95605H39.8896V5.08008H41.5654V4.96484C41.5654 3.32611 42.0239 2.08173 42.9395 1.23145ZM33.8086 4.75586C35.081 4.75586 36.1287 5.18096 36.9512 6.03125C37.789 6.88146 38.2079 8.05629 38.208 9.55566V16.6748H35.2051V9.92676C35.205 9.15413 34.9958 8.56693 34.5771 8.16504C34.1583 7.74771 33.5995 7.53817 32.9014 7.53809C32.1255 7.53809 31.5046 7.77856 31.0391 8.25781C30.5736 8.73706 30.3408 9.45562 30.3408 10.4141V16.6748H27.3379V5.08008H30.3408V6.37891C31.0701 5.29691 32.226 4.75589 33.8086 4.75586ZM72.9414 16.6738H69.9395V5.07812H72.9414V16.6738ZM19.0596 7.67773C18.1596 7.67773 17.4069 7.97921 16.8018 8.58203C16.2121 9.18496 15.917 9.95034 15.917 10.8779C15.917 11.8055 16.2121 12.5709 16.8018 13.1738C17.4069 13.7766 18.1597 14.0781 19.0596 14.0781C19.9595 14.0781 20.7123 13.7767 21.3174 13.1738C21.9225 12.5709 22.2246 11.8055 22.2246 10.8779C22.2246 9.9504 21.9225 9.18495 21.3174 8.58203C20.7123 7.97916 19.9595 7.6778 19.0596 7.67773ZM53.5176 7.44531C52.7107 7.44531 52.0432 7.65485 51.5156 8.07227C50.9881 8.47421 50.6385 9.04609 50.4678 9.78809H56.4033C56.2326 8.99964 55.8761 8.41189 55.333 8.02539C54.8055 7.63895 54.2003 7.44535 53.5176 7.44531ZM71.4287 0C71.9408 8.12367e-06 72.3755 0.185614 72.7324 0.556641C73.1047 0.927637 73.291 1.36084 73.291 1.85547C73.2909 2.34989 73.1045 2.78244 72.7324 3.15332C72.3755 3.50889 71.9408 3.68749 71.4287 3.6875C70.9321 3.6875 70.4974 3.5089 70.125 3.15332C69.7684 2.78244 69.5899 2.3499 69.5898 1.85547C69.5898 1.36082 69.7682 0.927644 70.125 0.556641C70.4974 0.185606 70.9321 0 71.4287 0Z" fill="#93959D"/>
</svg>
