<svg xmlns="http://www.w3.org/2000/svg" viewBox="0 0 24 24" fill="none">
  <g data-weight="regular" style="display:var(--icon-w-regular,inline)">
    <circle cx="12" cy="7.25" r="3.35" stroke="currentColor" stroke-width="1.3"/>
    <mask id="mypage-regular-mask" fill="#fff">
      <path d="M4 16.75a4 4 0 0 1 4-4h8a4 4 0 0 1 4 4v3a1 1 0 0 1-1 1H5a1 1 0 0 1-1-1z"/>
    </mask>
    <path d="M4 16.75a4 4 0 0 1 4-4h8a4 4 0 0 1 4 4v3a1 1 0 0 1-1 1H5a1 1 0 0 1-1-1z" stroke="currentColor" stroke-width="2.6" mask="url(#mypage-regular-mask)"/>
  </g>
  <g data-weight="fill" style="display:var(--icon-w-fill,none)">
    <circle cx="12" cy="7.25" r="3.35" fill="currentColor" stroke="currentColor" stroke-width="1.3"/>
    <mask id="mypage-fill-mask" fill="#fff">
      <path d="M4 16.75a4 4 0 0 1 4-4h8a4 4 0 0 1 4 4v3a1 1 0 0 1-1 1H5a1 1 0 0 1-1-1z"/>
    </mask>
    <path d="M4 16.75a4 4 0 0 1 4-4h8a4 4 0 0 1 4 4v3a1 1 0 0 1-1 1H5a1 1 0 0 1-1-1z" fill="currentColor" stroke="currentColor" stroke-width="2.6" mask="url(#mypage-fill-mask)"/>
  </g>
</svg>
