<svg viewBox="0 0 28 29" fill="none" xmlns="http://www.w3.org/2000/svg">
<circle cx="14" cy="8.85063" r="3.90833" stroke="currentColor" stroke-width="1.51667"/>
<mask id="path-2-inside-1_10465_6296" fill="white">
<path d="M4.66669 19.9339C4.66669 17.3566 6.75602 15.2673 9.33335 15.2673H18.6667C21.244 15.2673 23.3334 17.3566 23.3334 19.9339V23.4339C23.3334 24.0783 22.811 24.6006 22.1667 24.6006H5.83335C5.18902 24.6006 4.66669 24.0783 4.66669 23.4339V19.9339Z"/>
</mask>
<path d="M4.66669 19.9339C4.66669 17.3566 6.75602 15.2673 9.33335 15.2673H18.6667C21.244 15.2673 23.3334 17.3566 23.3334 19.9339V23.4339C23.3334 24.0783 22.811 24.6006 22.1667 24.6006H5.83335C5.18902 24.6006 4.66669 24.0783 4.66669 23.4339V19.9339Z" stroke="currentColor" stroke-width="3.03333" mask="url(#path-2-inside-1_10465_6296)"/>
</svg>
