<svg xmlns="http://www.w3.org/2000/svg" viewBox="0 0 24 24" fill="none">
  <g data-weight="regular" style="display:var(--icon-w-regular,inline)">
    <path d="M12.0478 13.7556C13.0446 13.7556 13.8526 12.9476 13.8526 11.9508C13.8526 10.954 13.0446 10.146 12.0478 10.146C11.051 10.146 10.243 10.954 10.243 11.9508C10.243 12.9476 11.051 13.7556 12.0478 13.7556Z" stroke="currentColor" stroke-width="1.16024" stroke-linecap="round" stroke-linejoin="round"/>
    <path d="M17.4619 11.0481C18.4586 11.0481 19.2667 10.2401 19.2667 9.2433C19.2667 8.24652 18.4586 7.43848 17.4619 7.43848C16.4651 7.43848 15.657 8.24652 15.657 9.2433C15.657 10.2401 16.4651 11.0481 17.4619 11.0481Z" stroke="currentColor" stroke-width="1.16024" stroke-linecap="round" stroke-linejoin="round"/>
    <path d="M15.043 4.39859C13.5139 3.79285 11.837 3.66562 10.234 4.03372C8.63106 4.40182 7.17763 5.24791 6.06601 6.46005C4.9544 7.67219 4.23698 9.19326 4.00869 10.822C3.78039 12.4508 4.05197 14.1105 4.78749 15.5815C5.52302 17.0526 6.68782 18.2657 8.12781 19.0603C9.5678 19.8549 11.2151 20.1936 12.8518 20.0316C14.4885 19.8696 16.0374 19.2145 17.2937 18.153C18.5499 17.0915 19.4543 15.6736 19.8871 14.0869M19.2681 9.24364V2.92676L21.0729 4.73158" stroke="currentColor" stroke-width="1.16024" stroke-linecap="round" stroke-linejoin="round"/>
  </g>
  <g data-weight="fill" style="display:var(--icon-w-fill,none)">
    <path fill-rule="evenodd" clip-rule="evenodd" d="M9.60265 3.96975C11.3199 3.57541 13.1169 3.71161 14.755 4.36037C14.9001 4.41787 15.0169 4.53186 15.0773 4.6758C15.1374 4.81976 15.1371 4.9823 15.0763 5.126L12.8946 10.4864C12.5109 10.2225 12.0469 10.0674 11.546 10.0674C10.229 10.0675 9.16132 11.1351 9.16125 12.4522C9.16151 13.7691 10.2291 14.8369 11.546 14.8369C12.8441 14.8369 13.8965 13.7995 13.9269 12.5088L19.5636 14.0352C19.8588 14.1302 20.0269 14.4411 19.9454 14.7403C19.4817 16.4401 18.5129 17.9594 17.1671 19.0967C15.8211 20.234 14.1609 20.9368 12.4073 21.1104C10.654 21.2838 8.88844 20.9206 7.34582 20.0694C5.80327 19.218 4.55564 17.9177 3.76769 16.3418C2.97973 14.7658 2.68814 12.9872 2.93273 11.2422C3.17735 9.49747 3.94617 7.86791 5.13683 6.56936C6.32769 5.27081 7.88548 4.36423 9.60265 3.96975ZM18.545 2.89162C18.7616 2.80201 19.011 2.85201 19.1769 3.0176L20.9816 4.82229C21.2081 5.04884 21.2081 5.41605 20.9816 5.6426C20.755 5.86897 20.3877 5.86909 20.1612 5.6426L19.3468 4.82815V9.74416C19.3468 9.75766 19.3428 9.77093 19.3419 9.7842C19.3205 11.0829 18.2639 12.1289 16.9601 12.1289C15.6431 12.1288 14.5753 11.0612 14.5753 9.74416C14.5755 8.4273 15.6432 7.35957 16.9601 7.3594C17.409 7.3594 17.8281 7.48545 18.1866 7.7012V3.42776C18.1867 3.19328 18.3285 2.98146 18.545 2.89162Z" fill="currentColor"/>
  </g>
</svg>
