<svg xmlns="http://www.w3.org/2000/svg" fill="none" viewBox="0 0 24 24">
  <path
    fill="currentColor"
    d="M14.079 1.5a.75.75 0 0 1 .714.52l.825 2.564q.52.254.994.575l2.634-.567a.75.75 0 0 1 .807.36l2.08 3.598a.75.75 0 0 1-.095.879l-1.808 1.995q.04.575 0 1.149l1.808 1.998a.75.75 0 0 1 .094.879l-2.079 3.6a.75.75 0 0 1-.807.358l-2.634-.567a8 8 0 0 1-.993.575l-.826 2.564a.75.75 0 0 1-.714.52H9.92a.75.75 0 0 1-.714-.52l-.824-2.562a8 8 0 0 1-.997-.578l-2.633.569a.75.75 0 0 1-.807-.36L1.867 15.45a.75.75 0 0 1 .095-.879l1.807-1.998a8 8 0 0 1 0-1.146L1.962 9.429a.75.75 0 0 1-.095-.879l2.08-3.6a.75.75 0 0 1 .806-.359l2.633.569a8 8 0 0 1 .997-.578l.825-2.561A.75.75 0 0 1 9.92 1.5h4.16m-.55 1.5h-3.06l-.851 2.65-.575.281a7 7 0 0 0-.816.471l-.53.36-2.725-.588-1.53 2.652 1.868 2.067-.045.636a7 7 0 0 0 0 .942l.045.636-1.87 2.067 1.53 2.652 2.725-.587.53.359q.393.263.817.471l.574.28L10.47 21h3.063l.855-2.652.573-.279a7 7 0 0 0 .814-.471l.53-.358 2.725.586 1.53-2.652-1.869-2.067.045-.636q.033-.472 0-.944l-.045-.635 1.87-2.066-1.53-2.652-2.726.585-.53-.357a7 7 0 0 0-.814-.471l-.573-.279L13.53 3zM12 7.5a4.5 4.5 0 1 1 0 9 4.5 4.5 0 0 1 0-9M12 9A3 3 0 1 0 12 15a3 3 0 0 0 0-6"
  />
</svg>
