<svg xmlns="http://www.w3.org/2000/svg" viewBox="0 0 24 24" fill="none">
  <g data-weight="regular" style="display:var(--icon-w-regular,inline)">
    <path d="M5.87757 7.714H18.1225C18.772 7.714 19.3949 7.97201 19.8542 8.43129C20.3134 8.89056 20.5714 9.51347 20.5714 10.163V13.8364C20.5714 14.486 20.3134 15.1089 19.8542 15.5681C19.3949 16.0274 18.772 16.2854 18.1225 16.2854H5.87757C5.22806 16.2854 4.60515 16.0274 4.14588 15.5681C3.68661 15.1089 3.42859 14.486 3.42859 13.8364V10.163C3.42859 9.51347 3.68661 8.89056 4.14588 8.43129C4.60515 7.97201 5.22806 7.714 5.87757 7.714ZM5.87757 8.93849C5.55281 8.93849 5.24136 9.0675 5.01172 9.29713C4.78209 9.52677 4.65308 9.83822 4.65308 10.163V13.8364C4.65308 14.1612 4.78209 14.4727 5.01172 14.7023C5.24136 14.9319 5.55281 15.0609 5.87757 15.0609H18.1225C18.4472 15.0609 18.7587 14.9319 18.9883 14.7023C19.2179 14.4727 19.347 14.1612 19.347 13.8364V10.163C19.347 9.83822 19.2179 9.52677 18.9883 9.29713C18.7587 9.0675 18.4472 8.93849 18.1225 8.93849H5.87757ZM3.42859 4.65277C3.42859 4.49039 3.49309 4.33467 3.60791 4.21985C3.72273 4.10503 3.87846 4.04053 4.04083 4.04053H19.9592C20.1216 4.04053 20.2773 4.10503 20.3921 4.21985C20.5069 4.33467 20.5714 4.49039 20.5714 4.65277C20.5714 4.81515 20.5069 4.97088 20.3921 5.08569C20.2773 5.20051 20.1216 5.26502 19.9592 5.26502H4.04083C3.87846 5.26502 3.72273 5.20051 3.60791 5.08569C3.49309 4.97088 3.42859 4.81515 3.42859 4.65277ZM3.42859 19.3467C3.42859 19.1843 3.49309 19.0285 3.60791 18.9137C3.72273 18.7989 3.87846 18.7344 4.04083 18.7344H19.9592C20.1216 18.7344 20.2773 18.7989 20.3921 18.9137C20.5069 19.0285 20.5714 19.1843 20.5714 19.3467C20.5714 19.509 20.5069 19.6648 20.3921 19.7796C20.2773 19.8944 20.1216 19.9589 19.9592 19.9589H4.04083C3.87846 19.9589 3.72273 19.8944 3.60791 19.7796C3.49309 19.6648 3.42859 19.509 3.42859 19.3467Z" fill="currentColor"/>
  </g>
  <g data-weight="fill" style="display:var(--icon-w-fill,none)">
    <path d="M18.1225 7.714H5.87757C5.22806 7.714 4.60515 7.97201 4.14588 8.43129C3.68661 8.89056 3.42859 9.51347 3.42859 10.163V13.8364C3.42859 14.486 3.68661 15.1089 4.14588 15.5681C4.60515 16.0274 5.22806 16.2854 5.87757 16.2854H18.1225C18.772 16.2854 19.3949 16.0274 19.8542 15.5681C20.3134 15.1089 20.5714 14.486 20.5714 13.8364V10.163C20.5714 9.51347 20.3134 8.89056 19.8542 8.43129C19.3949 7.97201 18.772 7.714 18.1225 7.714Z" fill="currentColor"/>
    <path d="M3.60791 4.21985C3.49309 4.33467 3.42859 4.49039 3.42859 4.65277C3.42859 4.81515 3.49309 4.97088 3.60791 5.08569C3.72273 5.20051 3.87846 5.26502 4.04083 5.26502H19.9592C20.1216 5.26502 20.2773 5.20051 20.3921 5.08569C20.5069 4.97088 20.5714 4.81515 20.5714 4.65277C20.5714 4.49039 20.5069 4.33467 20.3921 4.21985C20.2773 4.10503 20.1216 4.04053 19.9592 4.04053H4.04083C3.87846 4.04053 3.72273 4.10503 3.60791 4.21985Z" fill="currentColor"/>
    <path d="M3.60791 18.9137C3.49309 19.0285 3.42859 19.1843 3.42859 19.3467C3.42859 19.509 3.49309 19.6648 3.60791 19.7796C3.72273 19.8944 3.87846 19.9589 4.04083 19.9589H19.9592C20.1216 19.9589 20.2773 19.8944 20.3921 19.7796C20.5069 19.6648 20.5714 19.509 20.5714 19.3467C20.5714 19.1843 20.5069 19.0285 20.3921 18.9137C20.2773 18.7989 20.1216 18.7344 19.9592 18.7344H4.04083C3.87846 18.7344 3.72273 18.7989 3.60791 18.9137Z" fill="currentColor"/>
  </g>
</svg>
