<svg xmlns="http://www.w3.org/2000/svg" fill="none" viewBox="0 0 17 16">
  <g clip-path="url(#clip)">
    <path
      fill="currentColor"
      d="M7.86 4.8h1.28v1.28H7.86zm.64 6.4c.352 0 .64-.288.64-.64V8a.64.64 0 0 0-.64-.64.64.64 0 0 0-.64.64v2.56c0 .352.288.64.64.64m0-9.6A6.4 6.4 0 0 0 2.1 8c0 3.533 2.867 6.4 6.4 6.4s6.4-2.867 6.4-6.4-2.867-6.4-6.4-6.4m0 11.52A5.127 5.127 0 0 1 3.38 8 5.127 5.127 0 0 1 8.5 2.88 5.127 5.127 0 0 1 13.62 8a5.127 5.127 0 0 1-5.12 5.12"
    />
  </g>
  <defs>
    <clipPath id="clip">
      <path fill="#fff" d="M.5 0h16v16H.5z" />
    </clipPath>
  </defs>
</svg>

