<svg viewBox="0 0 61 60" xmlns="http://www.w3.org/2000/svg">
  <path
    d="M30.5 0C13.933 0 .5 13.433.5 30s13.433 30 30 30 30-13.433 30-30-13.433-30-30-30m0 54.91C16.746 54.91 5.59 43.756 5.59 30c0-13.754 11.156-24.91 24.91-24.91 13.755 0 24.91 11.156 24.91 24.91 0 13.755-11.155 24.91-24.91 24.91"
    fill="currentColor"
  />
  <path
    d="M27.286 41.786a3.215 3.215 0 1 0 6.43 0 3.215 3.215 0 0 0-6.43 0m1.607-7.5h3.214a.537.537 0 0 0 .536-.536V15.536a.537.537 0 0 0-.536-.536h-3.214a.537.537 0 0 0-.536.536V33.75c0 .295.241.536.536.536"
    fill="currentColor"
  />
</svg>
