<svg width="30" height="30" viewBox="0 0 30 30" fill="none" xmlns="http://www.w3.org/2000/svg">
<rect width="30" height="30" rx="15" fill="#F9FAFE"/>
<path d="M20.0502 22.28C19.0702 23.23 18.0002 23.08 16.9702 22.63C15.8802 22.17 14.8802 22.15 13.7302 22.63C12.2902 23.25 11.5302 23.07 10.6702 22.28C5.79016 17.25 6.51016 9.59 12.0502 9.31C13.4002 9.38 14.3402 10.05 15.1302 10.11C16.3102 9.87 17.4402 9.18 18.7002 9.27C20.2102 9.39 21.3502 9.99 22.1002 11.07C18.9802 12.94 19.7202 17.05 22.5802 18.2C22.0102 19.7 21.2702 21.19 20.0402 22.29L20.0502 22.28ZM15.0302 9.25C14.8802 7.02 16.6902 5.18 18.7702 5C19.0602 7.58 16.4302 9.5 15.0302 9.25Z" fill="#D9DADD"/>
</svg>
