<svg width="14" height="14" viewBox="0 0 14 14" fill="none" xmlns="http://www.w3.org/2000/svg">
<path d="M7 1.01709C3.69604 1.01709 1.01709 3.69604 1.01709 7C1.01709 10.304 3.69604 12.9829 7 12.9829C10.304 12.9829 12.9829 10.304 12.9829 7C12.9829 3.69604 10.304 1.01709 7 1.01709ZM7 11.968C4.25694 11.968 2.03205 9.74306 2.03205 7C2.03205 4.25694 4.25694 2.03205 7 2.03205C9.74306 2.03205 11.968 4.25694 11.968 7C11.968 9.74306 9.74306 11.968 7 11.968Z" fill="#75777F"/>
<path d="M9.33305 8.69085L7.42867 7.31398V4.00869C7.42867 3.94993 7.38059 3.90186 7.32183 3.90186H6.67947C6.62071 3.90186 6.57263 3.94993 6.57263 4.00869V7.68658C6.57263 7.7213 6.58866 7.75335 6.6167 7.77339L8.82557 9.38396C8.87365 9.41869 8.94042 9.408 8.97514 9.36126L9.35709 8.84043C9.39181 8.79102 9.38113 8.72424 9.33305 8.69085Z" fill="#75777F"/>
</svg>
