<svg width="1531" height="1531" viewBox="0 0 1531 1531" fill="none" xmlns="http://www.w3.org/2000/svg">
<rect x="0.8125" y="0.28125" width="1529.91" height="1529.91" rx="300" fill="url(#paint0_linear_8320_41901)"/>
<g filter="url(#filter0_i_8320_41901)">
<path d="M1171.85 1068.7H989.404V670.016H1171.85V1068.7ZM829.93 1063.29H647.48V1062.64C485.496 1062.47 353.621 933.946 347.684 773.359H534.436C540.079 830.942 588.5 875.919 647.48 876.075V772.727H829.93V1063.29ZM647.885 648.333C588.764 648.333 540.185 693.369 534.531 751.052H347.779C353.624 590.267 485.759 461.774 647.885 461.773V648.333ZM948.424 461.891H1171.85V648.395H947.508V648.338C888.802 648.8 840.694 693.667 835.07 751.052H648.318C654.163 590.267 786.298 461.774 948.424 461.773V461.891Z" fill="white"/>
</g>
<defs>
<filter id="filter0_i_8320_41901" x="347.684" y="461.773" width="824.168" height="610.93" filterUnits="userSpaceOnUse" color-interpolation-filters="sRGB">
<feFlood flood-opacity="0" result="BackgroundImageFix"/>
<feBlend mode="normal" in="SourceGraphic" in2="BackgroundImageFix" result="shape"/>
<feColorMatrix in="SourceAlpha" type="matrix" values="0 0 0 0 0 0 0 0 0 0 0 0 0 0 0 0 0 0 127 0" result="hardAlpha"/>
<feOffset dy="4"/>
<feGaussianBlur stdDeviation="2"/>
<feComposite in2="hardAlpha" operator="arithmetic" k2="-1" k3="1"/>
<feColorMatrix type="matrix" values="0 0 0 0 0 0 0 0 0 0 0 0 0 0 0 0 0 0 0.25 0"/>
<feBlend mode="normal" in2="shape" result="effect1_innerShadow_8320_41901"/>
</filter>
<linearGradient id="paint0_linear_8320_41901" x1="251.24" y1="66.8773" x2="1260.99" y2="1530.19" gradientUnits="userSpaceOnUse">
<stop stop-color="#B5F602"/>
<stop offset="1" stop-color="#90FDFF"/>
</linearGradient>
</defs>
</svg>
